<svg xmlns="http://www.w3.org/2000/svg" version="1.1" width="600px" height="600px" viewBox="0 0 200 200" style="overflow:hidden!important;"><g id="svga-group-wrapper"><g id="svga-group-backs-single"><path id="SvgjsPath13610" d="M0 0h200v200H0V0z" fill="#42ffff" stroke-width="none" opacity="1" stroke="none"></path></g><g id="svga-group-humanwrap-move" transform="matrix(1,0,0,1,0,0)"><g id="svga-group-humanwrap"><g id="svga-group-hair-back-move" transform="matrix(1,0,0,1,0,0)"><g id="svga-group-hair-back"><path id="SvgjsPath13869" d="M134.2 50.7s5.7 1.1 10.5 12 2.8 23.4 2.2 32.1-2 36-10.9 49.8-13.1 14.6-23.4 18.4c-10.3 3.7-36.5 2.6-47.6-7.4-11.1-10.1-6.5-26.9-3.7-33 2.8-6.2 72.9-71.9 72.9-71.9" fill="#483b39" stroke-width="none" opacity="1" stroke="none"></path><path id="SvgjsPath13870" d="M71.2 121.7s-2.8 7.1-3.4 12c-.6 4.9 2.6 9.5 4.5 12.1 2.1 2.8 6 7.6 6.1 17.2.1 6 41.6-5.5 41.6-5.5 3.7-2.9 11.1-9.6 15.6-20.9 3.8-9.5 3.8-17.8 3.5-22.4-17.2 6.2-34.5 12.5-51.7 18.7l-2.8-4.3-13.4-6.9z" fill="#413230" stroke-width="none" opacity="1" stroke="none"></path></g></g><g id="svga-group-humanbody-back"><path id="SvgjsPath13682" d="m168.5 219.5-1.7-21.5s.7-9-8.8-15.3-23.4-10.1-29.5-14.2c-6.1-4.1-9.2-4.5-9-16.9s.9-40.3.9-40.3H79.6s.7 27.9.9 40.3c.2 12.4-2.9 12.8-9 16.9-6.1 4.1-20 7.9-29.5 14.2S33.2 198 33.2 198l-1.6 21.5h136.9z" fill="#f3d4cf" stroke-width="none" opacity="1" stroke="none"></path></g><g id="svga-group-chinshadow-single"><path id="SvgjsPath14199" d="M100 160.9s9.1.44 19.5-7.32c-.01-.63-.01-1.28 0-1.98.2-12.4.9-40.3.9-40.3H79.6s.7 27.9.9 40.3c.01.7.01 1.36 0 1.98 10.4 7.76 19.5 7.32 19.5 7.32z" fill="#d4958a" stroke-width="none" opacity="0.65"></path></g><g id="svga-group-humanbody-front"><path id="SvgjsPath13683" d="M73.8 175.9c5.1 2.9 11.8 5.2 17.6 5.7.4 0 .4-.6.1-.7-2.8-1.1-5.9-1.7-8.8-2.6-2.9-.9-5.8-2-8.8-2.7-.1-.1-.3.2-.1.3zm35.2 6.2c5.3-.6 11.3-3 15.9-5.8.3-.2.1-.6-.2-.5-2.6.9-5.2 2-7.8 2.9-2.6.9-5.4 1.5-8 2.5-.5.1-.5.9.1.9z" fill="#d4958a" stroke-width="none" opacity="1" stroke="none"></path><path id="SvgjsPath13684" d="m168.4 219.4-2.1-21.4c0-2.2-.5-4.5-1.5-6.6-.9-2.1-2.3-3.9-3.9-5.5s-3.5-2.8-5.5-4c-2-1.2-4.1-2.2-6.2-3.1-4.2-1.9-8.6-3.6-12.9-5.4-2.2-.9-4.3-1.9-6.4-3-1.1-.6-2.1-1.2-3-1.9-1-.6-2-1.2-3-1.9s-2-1.5-2.8-2.6c-.8-1-1.3-2.2-1.7-3.4-.7-2.4-.8-4.8-.8-7.2 0-4.7.2-9.4.3-14.1.2-9.4.6-18.7.9-28l.6.6-20.4-.2-20.4-.1.3-.3.7 28c.1 4.7.3 9.3.4 14 0 2.4-.1 4.7-.8 7.1-.3 1.2-.9 2.3-1.6 3.3-.8 1-1.7 1.8-2.7 2.5s-2 1.3-2.9 2c-.9.6-1.9 1.3-3 1.9-2.1 1.2-4.2 2.1-6.4 3.1-4.3 1.9-8.6 3.6-12.8 5.6-2.1 1-4.2 2.1-6.1 3.2-2 1.2-3.8 2.4-5.4 4-1.6 1.6-2.9 3.4-3.8 5.4-.4 1-.8 2.1-1 3.1-.2 1.1-.4 2.2-.3 3.2v.2l-1.5 21.5-1-1.1 34 .1c11.3 0 22.7.1 34.1.2l34.2.3 34.4.5zm.2.2-34 .4-34.2.3c-11.4.1-22.9.2-34.4.2l-34.4.1h-1.1l.1-1.1 1.7-21.5v.1c-.1-5.1 2.2-9.8 5.7-13.3 1.7-1.7 3.8-3.1 5.8-4.3 2-1.2 4.2-2.2 6.3-3.2 4.3-2 8.7-3.7 13-5.4 2.1-.9 4.3-1.8 6.3-2.9 1-.5 1.9-1.1 3-1.8 1-.6 2-1.2 2.9-1.9.9-.6 1.8-1.4 2.4-2.2.7-.9 1.2-1.9 1.5-2.9.6-2.1.8-4.5.8-6.8 0-4.6-.1-9.3-.2-14l-.6-28v-.3h.3l20.4-.1 20.4-.2h.6v.6c-.1 9.3-.2 18.7-.4 28-.1 4.7-.2 9.4-.2 14 .1 2.3.2 4.6.8 6.7.3 1.1.8 2 1.4 2.9.6.8 1.4 1.6 2.4 2.2.9.6 1.9 1.3 2.9 1.9 1 .7 1.9 1.3 2.9 1.8 2 1.1 4.1 2.1 6.3 3 4.3 1.8 8.6 3.6 12.9 5.6 2.1 1 4.2 2.1 6.2 3.3 2 1.2 4 2.6 5.7 4.3 3.4 3.4 5.6 8.1 5.4 13v-.1l1.4 21.6zm-112.8-.4 1.9-13.8.1 13.8h-2zm88.6 0-1.9-13.8-.1 13.8h2z" fill="#c5796d" stroke-width="none" opacity="1" stroke="none"></path></g><g id="svga-group-clothes-single"><path id="SvgjsPath13842" d="M27.5 220c-1.4-8.2 1.3-23.2 1.8-26s3.9-6.8 3.9-6.8 1.2-2.6 5.1-6c4-3.5 15.4-6.4 15.9-7.6.5-1.2 2.7-2.3 2.7-2.3-1-4.2 2.1-7.8 3.6-11.4 1.5-3.6 4.9-5.6 4.9-5.6 3.7-6.2 12.5-7 12.5-7s.6 5.3.6 7.8-.1 6.1-.8 7.7-.8 2.3-.8 2.3.2 3.2 5.8 7.4 7.2 6.9 12.5 9.2c3.7 1.7 6.7 5.2 6.7 5.2s0-2.6 3.1-5.2c4.5-3.8 6.9-5 12.5-9.2s5.8-7.4 5.8-7.4-.1-1-.5-2.7c-.4-2-.3-4.4-.3-6.9s.8-8.4.8-8.4 7.7 1 11.4 7.2c0 0 3.3 2.1 4.9 5.6s4.6 7.2 3.6 11.4c0 0 2.2 1.2 2.7 2.3.5 1.2 11.9 4.1 15.9 7.6s5.1 6 5.1 6 3.3 4 3.9 6.8c.5 2.8 3.2 17.8 1.8 26" fill="#183210" stroke-width="none" opacity="1"></path><path id="SvgjsPath13843" d="M173.2 211.5c-.1-2.9-.2-5.7-.6-8.5s-.7-5.6-1.1-8.5c-.1-.7-.3-1.5-.6-2.2-.3-.7-.6-1.4-1-2-.7-1.2-1.5-2.4-2.4-3.5-.6-1.2-1.3-2.1-2.1-3.1s-1.7-1.9-2.6-2.7c-.9-.9-2-1.6-3.1-2.2-1.1-.6-2.2-1.1-3.4-1.6-2.3-1-4.6-1.9-6.8-2.8-.6-.2-1.1-.4-1.7-.7-.3-.1-.5-.2-.8-.4-.1-.1-.2-.1-.3-.2 0 0-.1 0-.1-.1l-.1-.1c-.1-.1-.1-.2-.2-.3-.1-.2-.2-.3-.4-.5-.3-.3-.5-.5-.8-.7-.3-.3-.7-.5-1-.7.2-1.6 0-3.3-.6-4.7-.6-1.7-1.4-3.1-2.2-4.6-.4-.7-.7-1.4-1.1-2.2-.4-.8-.8-1.6-1.4-2.3-1-1.4-2.2-2.5-3.6-3.5-1.3-2.1-3.1-3.8-5.1-5-1.1-.6-2.2-1.1-3.3-1.6-1.2-.4-2.3-.7-3.6-.9-.5-.1-2.9-.2-2.9-.2-1.5 11 1.8 18.5 1.9 19.2 0 .1-.1.4-.2.6v.1l-.3.6v.1c0 .1 0 .1-.1.2-.3.5-.6.9-.9 1.4-.7 1-1.6 1.9-2.6 2.7-.1.1-.3.2-.4.3-.2.2-.5.4-.7.6-.7.5-1.5 1.1-2.2 1.6-.9.7-1.8 1.4-2.8 2.2 0 0-.1 0-.1.1-2.1 1.5-4.3 3-6.3 4.7-1.7 1.4-3.7 3.1-4.3 5.6-1.8-1.8-3.8-3.3-6.1-4.4-2.6-1.1-4.9-2.6-7-4.5-1.1-.9-2.1-1.9-3.2-2.8-1.1-.9-2.2-1.8-3.3-2.6-1.1-.9-2.1-1.8-3-2.9-.3-.4-.6-.8-.8-1.2-.2-.4-.2-.8-.3-1.2-.1-.4-.2-.9-.2-1.2v-.1l-.1-.2c-.1-.1-.1-.3-.2-.5.1-.4.3-.8.5-1.1 2.3-1.9 2.5-9.2 2.4-10.8-.1-1.5-.2-5.8-.2-5.8-1.3.1-4.7.6-5.9.9-1.2.4-2.4.8-3.5 1.4-2.2 1.1-4.3 2.7-5.7 4.9-1.4.9-2.7 2.1-3.7 3.4-.5.7-1 1.4-1.4 2.3-.3.8-.7 1.4-1.1 2.2-.8 1.4-1.6 2.9-2.2 4.6-.5 1.4-.8 3.1-.6 4.7-.4.2-.7.5-1.1.8-.3.2-.5.4-.8.7-.1.1-.2.3-.4.4-.1.1-.1.2-.2.3v.1l-.1.1c-.1.1-.2.1-.3.2-.2.1-.5.2-.8.4-.5.2-1.1.5-1.7.7-2.3.9-4.6 1.7-6.8 2.7-1.1.5-2.3 1-3.4 1.6-1.1.6-2.2 1.4-3.1 2.2-.9.8-1.8 1.7-2.6 2.7-.8.9-1.5 1.9-2.1 3.1-.9 1.1-1.7 2.3-2.4 3.5-.4.6-.7 1.3-1 2-.3.7-.5 1.5-.6 2.2-.5 2.8-.9 5.6-1.2 8.5s-.5 5.7-.6 8.5c0 2.9 0 5.7.6 8.5h.2c-.4-2.8-.3-5.6-.1-8.5.2-2.8.5-5.6.9-8.4.4-2.8.9-5.6 1.4-8.4.1-.7.3-1.3.5-1.9.3-.6.6-1.2 1-1.8.7-1.2 1.5-2.3 2.4-3.4l.1-.1v-.1c.5-.9 1.2-1.9 2-2.8.8-.9 1.6-1.7 2.5-2.5 1.7-1.6 3.9-2.6 6.1-3.5 2.2-.9 4.5-1.8 6.8-2.6.6-.2 1.2-.4 1.7-.7.1 0 .2-.1.2-.1-.4.8-.8 1.6-1.1 2.4-.4 1.3-.7 2.7-.3 4.2.3.8.7 1.3 1.2 1.8s1 1 1.5 1.4c1.1.9 2.2 1.6 3.3 2.3 2.3 1.4 4.7 2.6 7.1 3.7 1.2.5 2.4 1.1 3.7 1.5 1.3.4 2.7.7 4 .9 2.7.4 5.3.5 8 .6 2.7.1 5.3.1 7.9.1 1.3 0 2.6.1 3.9.2l3.9.4c.6.1 1.2.1 1.7.2-2.1 2.1-4.3 5.2-5.4 9.6-1.4 6 .7 7.6 1.7 8 .3.1.7.2 1.1.2 1.4 0 2.9-1 3.8-2.6.7-1.2 1.4-3.5 2-6.1 0 7 .7 12.8.8 13.2.1.5.5.9 1 .9h.1c.6-.1.9-.6.9-1.1 0-.1-1.1-9.2-.6-18.3 1.5 6.3 3.9 15.4 6.7 18.8.3.4 1 .5 1.4.1s.5-1 .1-1.4c-2.9-3.5-5.6-14.9-6.9-20.7.1 0 .1-.1.2-.1 2.2 3.6 3.5 8.3 4.4 11.7.5 1.8.8 3.2 1.2 4.1.7 1.6 2.4 2.6 4.1 2.6.5 0 1.1-.1 1.5-.3 1-.4 4-2.3 1.2-9.2-2-4.9-5.4-8.3-8.4-10.5.3-.1.7-.3 1.1-.4 1.9-.6 3.9-1.3 5.8-1.4.4 0 1.1-.1 1.6-.2l1.5-.3c1-.2 2-.5 3-.8 2-.6 3.9-1.3 5.8-2 3.8-1.5 7.6-3.2 11.2-5.2 1.8-1 3.6-2.3 4.9-4 .6-.9 1.2-1.8 1.5-2.8.2-.6.4-1.2.4-1.8.1.1.2.1.3.2.3.1.6.3.9.4.6.2 1.2.5 1.7.7 2.3.9 4.6 1.7 6.8 2.6 2.2.9 4.4 1.9 6.1 3.5.9.8 1.7 1.6 2.5 2.5.8.9 1.5 1.9 2 2.8v.1l.1.1c.9 1 1.7 2.2 2.4 3.3.4.6.7 1.2.9 1.8.3.6.4 1.2.6 1.9.5 2.8 1 5.6 1.4 8.4.4 2.8.7 5.6.9 8.4.2 2.8.2 5.7-.1 8.5h.2c1.1-2.9 1.2-5.8 1.2-8.6zm-49.2-48c-.1-.3-.1-.7-.2-1-.2-.8-.2-1.4-.3-2.1-.1-1.4-.1-2.9-.1-4.4 0-1.5.1-2.9.3-4.4 0-.2.1-.5.1-.7.7 1 1.2 2.1 1.5 3.2.3 1.4.4 2.8.3 4.2-.1 1.4-.4 2.8-.9 4.1-.2.4-.5.8-.7 1.1zm-46.2-2.9c-.1.7-.2 1.4-.6 2.1-.1.1-.1.3-.2.4-.2-.6-.3-1.2-.4-1.7-.2-1.1-.4-2.2-.4-3.3-.1-1.1 0-2.1.4-3.1.3-.8.7-1.6 1.4-2.4.1 1.2.2 2.4.1 3.6-.1 1.4-.1 2.9-.3 4.4zm19.7 48.6c-.7 1.2-1.8 1.7-2.4 1.5-.8-.3-1.3-2.2-.5-5.7 1.2-4.8 4-8 6.1-9.8h.3c-.8 4.8-2.3 12-3.5 14zm4.6-17.4c-.2.1-1.5.8-3.1 2.3-.8-.1-1.7-.3-2.5-.4-2.6-.4-5.2-1-7.9-1.1-5.3-.4-10.6-.4-15.6-1.2-1.3-.2-2.5-.5-3.7-.8-1.2-.4-2.4-.9-3.6-1.4-2.4-1-4.8-2.1-7.1-3.3-1.2-.6-2.2-1.3-3.3-2-1-.7-2.1-1.5-2.6-2.5-.4-1.1-.3-2.4 0-3.6.2-1 .5-1.9 1-2.9 0 0 .1-.1.2-.1.2-.1.3-.2.5-.3.2-.1.3-.2.6-.5l.2-.3s0-.1.1-.1c0-.1.1-.2.2-.3.2-.2.4-.4.6-.5s.5-.3.7-.5v1.3c.1.8.4 1.6.7 2.4.7 1.5 1.7 2.9 2.7 4.2 1.1 1.2 2.3 2.4 3.6 3.4.7.5 1.3 1 2 1.5.7.4 1.4.9 2.1 1.3-1.2-1.2-2.4-2.3-3.5-3.4-1.2-1.1-2.3-2.3-3.3-3.5-1-1.2-2-2.5-2.8-3.9-.4-.7-.7-1.4-1-2.2-.1-.4-.2-.9-.3-1.3.2-.1.3-.2.4-.3.3-.2.5-.6.4-1-.3-1.4-.2-2.9.3-4.4.5-1.5 1.3-2.9 2.1-4.4.4-.7.8-1.5 1.1-2.3.3-.7.7-1.4 1.1-2 .4-.6.9-1.1 1.4-1.7-.7 1.5-1 3.1-1 4.8.1 2.6 1.3 5 2.6 7.1 1.3 2.2 2.7 4.3 4.4 6.2 1.7 1.9 3.8 3.5 6 4.8 2.2 1.3 4.6 2.2 6.9 3.1 2.4.9 4.8 1.7 7.2 2.4 2.4.8 4.8 1.5 7 2.7 2 1 3.8 2.3 5.4 3.9 0 .5-.1.6-.2.8zm13.5 13.3c1.4 3.4 1.3 6-.2 6.6-1.1.4-2.6-.2-3.1-1.2-.3-.8-.7-2.2-1.2-3.9-.9-3.4-2.1-8-4.3-11.8 2.9 1.8 6.7 5.2 8.8 10.3zm27.5-26.3c-1.3 1.4-3 2.4-4.8 3.3-3.6 1.8-7.4 3.3-11.2 4.8l-5.7 2.3c-.9.4-1.9.7-2.8 1.1-.5.2-.9.3-1.4.4-.5.1-.9.2-1.4.3-2.1.4-4 1.1-5.9 1.8l-1.5.6c-2.3-1.6-4.3-2.3-4.8-2.3-.2 0-.3.1-.5.1h-.2c-.2 0-.4.1-.6.2-1.5-1.6-3.3-3.1-5.2-4.2-2.2-1.3-4.6-2.1-7-3-4.7-1.7-9.5-3.2-13.8-5.7-2.1-1.2-4.1-2.7-5.8-4.5-1.7-1.8-3.1-3.9-4.4-6-.7-1.1-1.3-2.1-1.8-3.2s-.8-2.3-1-3.5c-.2-1.7.1-3.5.8-5.1.5-.4 1-.9 1.5-1.2h.1l.2-.2c1.2-2 3-3.6 5.1-4.7 1.1-.6 2.2-1 3.3-1.4 1-.3 2-.6 3-.7.2 1.3.3 2.6.4 4v.6c-1 .4-1.9 1.2-2.5 2.1-.7 1.1-1.1 2.4-1.1 3.7-.1 1.3.1 2.5.3 3.7.3 1.2.7 2.4 1.3 3.5.1.4.2.8.4 1.2.2.4.5.9.7 1.3.3.4.6.8 1 1.1l.9.6c.8.9 1.6 1.7 2.4 2.4 1.1.9 2.2 1.7 3.3 2.6 1.1.9 2.1 1.8 3.2 2.8 1.1.9 2.2 1.9 3.3 2.7 1.2.8 2.5 1.5 3.7 2.1 2.4 1.2 4.6 3.1 6.4 5.1.1.1.2.2.4.2.3 0 .6-.2.6-.5.1-1.1.7-2.3 1.4-3.2.7-1 1.8-1.7 2.8-2.5 2-1.6 4.2-3 6.4-4.5 1.1-.7 2.2-1.5 3.2-2.3.3-.2.7-.5 1-.7l1-.6c.8-.5 1.6-1 2.3-1.7.7-.6 1.4-1.3 2-2.1.3-.4.6-.8.8-1.3.1-.2.2-.5.3-.8 0-.1.1-.3.1-.4l.6-.6c.3-.3.6-.6.8-1 .5-.7.9-1.4 1.2-2.2.6-1.5.8-3.1.7-4.7 0-1.6-.3-3.1-.9-4.6-.5-1.2-1.3-2.3-2.3-3.1l.3-2.4 2.1.6c1 .4 2 .9 3 1.4 1.9 1.1 3.5 2.6 4.6 4.4l.3.3c.2.1.4.3.6.5 0 1.6-.2 3.1-.7 4.6-.6 1.9-1.6 3.7-2.8 5.2-2.5 3.1-5.7 5.6-9.2 7.6-.9.5-1.8.9-2.7 1.3-.9.4-1.9.9-2.8 1.4-1.8 1-3.6 2-5.2 3.2s-3.3 2.4-4.8 3.8c-.8.7-1.5 1.4-2.1 2.2-.6.8-1.3 1.6-1.5 2.6.3-1 1.1-1.7 1.7-2.5.7-.7 1.5-1.4 2.3-2 1.6-1.3 3.2-2.4 4.9-3.5 1.7-1.1 3.4-2.1 5.2-3 .9-.5 1.8-.9 2.7-1.3.9-.4 1.9-.8 2.8-1.3 1.8-1 3.5-2.2 5.1-3.5 1.6-1.3 3-2.8 4.3-4.4 2.2-2.9 3.4-6.6 3.1-10.2.9.7 1.8 1.6 2.5 2.6.4.6.9 1.3 1.1 1.9.3.8.7 1.6 1.1 2.3.8 1.5 1.6 2.9 2.1 4.3s.7 2.9.4 4.3c-.1.3 0 .6.2.9-1.1.9-2.2 1.7-3.4 2.4-1.4.9-3 1.7-4.6 2.3-1.6.6-3.2 1.1-4.9 1.6l-4.9 1.4c-1.7.5-3.3 1-4.9 1.6-.8.3-1.6.7-2.4 1.2-.4.2-.8.5-1.1.8-.3.3-.6.6-.9.8-2.7 2.1-5.8 3.6-8.4 5.9.3-.3.7-.5 1.1-.7l1.1-.6 2.3-1.2c1.5-.9 3-1.7 4.4-2.7.4-.2.7-.5 1.1-.8.3-.3.6-.5 1-.7.7-.4 1.5-.7 2.3-1 1.6-.6 3.2-1.1 4.9-1.6l4.9-1.5c1.6-.5 3.3-1 4.9-1.8 2.9-1.3 5.5-3.1 7.7-5.3l.2.2c.5.2 1 .6 1.4.9.2.2.4.3.6.5l.2.2.1.1.2.3c.2.3.4.4.5.5-.3 1.2-1.2 2.7-2.3 3.8zM42 203.8c-.7-2.5-1.7-5-2.9-7.3s-2.5-4.6-4.1-6.6c.9 2.5 1.8 4.9 2.6 7.3.9 2.4 1.7 4.8 2.4 7.2.3 1.2.6 2.4.9 3.7l.8 3.7c.5 2.5 1.1 5 1.7 7.5.2-2.6.1-5.2-.2-7.8-.1-2.6-.5-5.1-1.2-7.7zm117.5-7.6c-.7 1.1-1.2 2.3-1.7 3.5-.5 1.2-.8 2.4-1.1 3.7-.5 2.5-.7 5-.8 7.5 0 2.5.1 5 .5 7.5.4-2.5.7-4.9 1-7.4.4-2.4.7-4.9 1.2-7.2.5-2.4 1.1-4.6 2.2-6.8 1-2.1 2.4-4.2 4.1-6-2.2 1.1-4 3.1-5.4 5.2z" fill="#061302" stroke-width="none" opacity="1"></path><path id="SvgjsPath13844" d="M107.5 181.3c6.7-4 15.6-7.9 20-14.8 3.2-5 3.7-12.1-1-16.2-.3-.2-.8.1-.5.4 10.5 14.7-10.3 22.7-18.8 30.1-.3.2 0 .6.3.5zm30.2-23.2c-.1-.5-1-.5-1 0-1.4 8.9-6.9 13.3-14.7 17.2-5.8 2.8-11.3 5.4-15.1 10.8-.3.5.4 1.1.8.6 6.5-6.6 15.7-8.5 22.9-14 4.4-3.3 8.5-8.8 7.1-14.6zm-57 16.5c-8.2-5.3-14.7-16.3-5.2-24 .6-.5-.2-1.2-.7-.9-8 3.7-7.1 14-2.6 20.1 6.7 9 18.7 11.6 27.6 17.5.2.1.3-.1.2-.2-5.5-5.8-12.8-8.3-19.3-12.5zm15.8 15.5c-6.5-3.6-14.1-4.6-20.6-8.6-7-4.3-11.7-10.2-13.7-18.2-.1-.4-.7-.3-.6.1.4 7.5 5.4 14.1 11.2 18.5 6.3 4.7 15.6 8.9 23.5 9.4.5 0 .8-.9.2-1.2zm47.1-16.2c-6.3 8.2-15.4 10.1-25 12.1-.4.1-.2.6.2.5 9.3-1.2 20.3-3.6 25.5-12.3.2-.3-.4-.6-.7-.3zm26 24.6c-.5-3.4-.7-8.6-4.2-10.2v-.4c-2.4-6.2-11.4-11.6-18-11.3-.6 0-.7.9-.1 1.1 3.2 1.3 6.4 2.1 9.4 4 2.7 1.8 4.5 4.2 6.7 6.4-8.5 4.9-12.6 16.1-9.5 25.4.1.4.9.4.8-.1-1.2-10.3 2-17.9 9.7-24.3 5.9 7 3.7 19.7 4.8 28.2.1.6 1 .8 1.1.1.9-6.2.2-12.7-.7-18.9zM46.7 177.6c-5.3.9-9.7 5.4-11.9 10.1-.2.5.4.9.7.4 2.9-4.6 6.9-7.1 11.4-9.9.3-.2.1-.6-.2-.6zM33 191.9c-2.4 6.3-3.5 13.7-3.3 20.4 0 .5.8.5.8 0 .8-6.9 1.7-13.5 2.9-20.3.1-.3-.3-.4-.4-.1z" fill="#24411b" stroke-width="none" opacity="1"></path></g><g id="svga-group-head" transform="matrix(1,0,0,1,0,0)"><g id="svga-group-ears-left-move" transform="matrix(1,0,0,1,0,0)"><g id="svga-group-ears-left"><path id="SvgjsPath13631" d="M64 93.7s-2.3-2.2-5-3.3-5.7.7-6.6 3.4 1.2 14 4.7 18.1 5.8 4.4 8.1 2.3c2.3-2 6.4-9.9-1.2-20.5z" fill="#f3d4cf" stroke-width="none" opacity="1" stroke="none"></path><path id="SvgjsPath13632" d="M65.2 95.3c.4.6.7 1.2 1.1 1.8.4.6.7 1.3 1 1.9.3.7.6 1.3.8 2 .2.7.5 1.4.6 2.2.1.4.1.8.2 1.1l.1 1.2c0 1.6-.2 3.1-.6 4.6-.5 1.5-1.1 2.8-2.1 3.9-.2.3-.5.5-.7.8-.3.2-.5.4-.8.6-.6.4-1.2.7-1.9.7-.7.1-1.4 0-2-.3s-1.2-.7-1.7-1.1-1-.9-1.5-1.5c-.5-.5-.9-1.1-1.3-1.7-1.5-2.5-2.4-5.3-3.2-8.1-.4-1.4-.7-2.8-1-4.3s-.5-2.9-.4-4.5c0-.4.1-.8.2-1.3.1-.2.1-.4.2-.6l.3-.5c.4-.7.9-1.2 1.4-1.7 1.1-.9 2.4-1.3 3.7-1.1.6.1 1.3.3 1.8.6.6.3 1.1.6 1.7 1 1.1.7 2.1 1.5 3.1 2.4l1 1.9zm-4.4-3.8c-.6-.3-1.1-.5-1.7-.7-.6-.2-1.1-.3-1.7-.3-1.1.1-2.2.5-3.1 1.3-.4.4-.8.8-1.1 1.4-.1.3-.3.5-.4.8-.1.3-.2.5-.2.9-.2 1.3-.1 2.8.1 4.2.2 1.4.4 2.9.7 4.3.7 2.8 1.7 5.6 3.3 7.7.8 1 1.8 1.9 2.7 2.7 1 .7 2.1 1.2 3.1 1 .5-.1 1-.3 1.5-.6s.9-.7 1.3-1.2c.7-1 1.4-2.1 1.7-3.4.4-1.3.6-2.6.7-4 0-1.4-.1-2.8-.4-4.2-.6-2.8-1.8-5.4-3.4-7.6-.9-1-2-1.7-3.1-2.3z" fill="#e4b3ab" stroke-width="none" opacity="1" stroke="none"></path><path id="SvgjsPath13633" d="M55.9 93.3c3 .5 5 5.7 5.6 9.2.1.1.1.2.2.3.3.5-.4 1.1-.7.6-.4-.7-1-1.5-1.7-1.8-1.3-.5-2 1-1.7 2.5.4 1.7 1.5 2.8 2.5 4.1.1.1 0 .3-.1.2-1.6-1-4-4.5-2.9-6.7.8-1.6 2.1-1.3 3.2-.4-.7-2-1.3-4-2.8-5.5-.5-.5-1.4-1.3-2.1-1.2-1.2.2-1.2 2-1.3 3.1-.1 1.5.1 3.1.3 4.7 0 .2-.2.2-.2.1-.6-2.4-1.8-9.8 1.7-9.2z" fill="#d4958a" stroke-width="none" opacity="1" stroke="none"></path></g></g><g id="svga-group-ears-right-move" transform="matrix(1,0,0,1,0,0)"><g id="svga-group-ears-right"><path id="SvgjsPath13634" d="M136 93.7s2.3-2.2 5-3.3 5.7.7 6.6 3.4-1.2 14-4.7 18.1-5.8 4.4-8.1 2.3c-2.3-2-6.4-9.9 1.2-20.5z" fill="#f3d4cf" stroke-width="none" opacity="1" stroke="none"></path><path id="SvgjsPath13635" d="M136 93.6c1-.9 2-1.7 3.1-2.4.5-.4 1.1-.7 1.7-1 .6-.3 1.2-.5 1.8-.6 1.3-.1 2.6.2 3.7 1.1.5.4 1 1 1.4 1.7l.3.5c.1.2.1.4.2.6.1.4.2.9.2 1.3.1 1.6-.2 3.1-.4 4.5-.3 1.5-.6 2.9-1 4.3-.8 2.8-1.7 5.6-3.2 8.1-.4.6-.8 1.1-1.3 1.7-.4.5-.9 1-1.5 1.5-.5.4-1.1.8-1.7 1.1-.6.3-1.3.4-2 .3s-1.3-.4-1.9-.7c-.3-.2-.6-.4-.8-.6-.3-.2-.5-.5-.7-.8-.9-1.1-1.6-2.5-2.1-3.9-.4-1.5-.7-3-.6-4.6l.1-1.2c0-.4.1-.8.2-1.1.1-.8.4-1.5.6-2.2.3-.7.5-1.4.8-2s.6-1.3 1-1.9.7-1.2 1.1-1.8l1-1.9zm0 .1c-1.6 2.2-2.8 4.9-3.4 7.6-.3 1.4-.4 2.8-.4 4.2 0 1.4.2 2.7.7 4 .4 1.3 1 2.4 1.7 3.4.4.5.8.9 1.3 1.2.5.3.9.6 1.5.6 1 .2 2.1-.3 3.1-1 1-.8 1.9-1.7 2.7-2.7 1.6-2.1 2.6-4.9 3.3-7.7.4-1.4.6-2.8.7-4.3.2-1.4.2-2.9.1-4.2 0-.3-.1-.6-.2-.9-.1-.3-.2-.6-.4-.8-.3-.5-.7-1-1.1-1.4-.9-.7-1.9-1.2-3.1-1.3-.6 0-1.1.1-1.7.3-.6.2-1.1.4-1.7.7-1 .7-2.1 1.4-3.1 2.3z" fill="#e4b3ab" stroke-width="none" opacity="1" stroke="none"></path><path id="SvgjsPath13636" d="M144.1 93.3c-3 .5-5 5.7-5.6 9.2-.1.1-.1.2-.2.3-.3.5.4 1.1.7.6.4-.7 1-1.5 1.7-1.8 1.3-.5 2 1 1.7 2.5-.4 1.7-1.5 2.8-2.5 4.1-.1.1 0 .3.1.2 1.6-1 4-4.5 2.9-6.7-.8-1.6-2.1-1.3-3.2-.4.7-2 1.3-4 2.8-5.5.5-.5 1.4-1.3 2.1-1.2 1.2.2 1.2 2 1.3 3.1.1 1.5-.1 3.1-.3 4.7 0 .2.2.2.2.1.6-2.4 1.8-9.8-1.7-9.2z" fill="#d4958a" stroke-width="none" opacity="1" stroke="none"></path></g></g><g id="svga-group-faceshape-wrap"><g id="svga-group-faceshape-single"><path id="SvgjsPath14188" d="M141 85.4c-1.2-28.5-19.61-43.51-40.91-43.51S60.2 57 59 85.4c0 0-.4 25.9 5.4 37.3 14.4 28.4 35.62 26.95 35.62 26.95s21.18 1.45 35.58-26.95c5.8-11.4 5.4-37.3 5.4-37.3z" fill="#f3d4cf" stroke-width="none" opacity="1"></path><path id="SvgjsPath14189" d="M135.6 122.7c5.8-11.4 5.49-37.32 5.49-37.32-1.2-28.5-19.79-44.08-41.09-44.08S60.2 57 59 85.4c0 0-.4 25.9 5.4 37.3 14.4 28.4 35.6 27.5 35.6 27.5s21.2.9 35.6-27.5zm-41.7 25.17c-2-.51-4-1.31-6-2.22-3.9-1.82-7.4-4.45-10.5-7.48-1.6-1.52-3-3.14-4.4-4.85 0 0-3.2-4.45-3.9-5.36-.3-.51-.6-.91-.9-1.42-.3-.51-.6-.91-.9-1.42l-1.8-3.24s-.9-2.12-1.1-2.63-.4-1.01-.5-1.62c-.2-.51-.3-1.11-.5-1.62-.6-2.12-1.1-4.35-1.5-6.57s-.8-4.45-1-6.78c-.6-4.55-.9-9.1-1.1-13.75v-3.34l.1-1.72c0-.61.1-1.11.1-1.72.1-1.11.3-2.22.4-3.44.1-.61.2-1.11.3-1.72 0 0 .3-1.31.4-1.62 1-4.45 2.5-8.8 4.8-12.64.5-1.01 1.2-1.92 1.8-2.83l1-1.31c.3-.4.7-.91 1.1-1.31 1.4-1.72 3-3.34 4.7-4.75 3.4-2.83 7.3-4.96 11.4-6.47 4.1-1.42 8.4-2.12 12.8-2.22 2.2-.1 11 1.11 11.3 1.21 4.91 1.22 9.7 3.54 13.3 5.97.9.61 1.8 1.31 2.6 2.02l1.3 1.11 1.2 1.11c1.6 1.62 3 3.34 4.3 5.16.3.51 1.9 2.83 1.9 2.83.3.51 1.6 3.03 1.6 3.03.5 1.01.9 2.12 1.4 3.14.4 1.11.8 2.12 1.1 3.24.4 1.11.6 2.22.9 3.34.1.61.7 3.34.7 3.34l.28 1.94c.1.61.18 2.74.18 2.74l.06.93s-.01 8.78-.31 12.32-.51 6.76-1.11 10.3c-.3 1.72-.7 3.54-1.1 5.26-.4 1.72-.9 3.44-1.5 5.06s-1.2 3.24-2 4.75l-1.3 2.22c-.4.81-.9 1.52-1.4 2.22-1.9 2.93-4 5.66-6.3 8.19s-4.8 4.85-7.5 6.88c-1.4 1.01-2.8 1.92-4.2 2.73-1.5.81-3 1.52-4.5 2.12-.4.2-2 .71-2.4.81-.8.2-1.6.4-2.4.61s-6.63.63-10.9-.53z" fill="#c5796d" stroke-width="none" opacity="1"></path></g></g><g id="svga-group-mouth-single-move" transform="matrix(1,0,0,1,0,0)"><g id="svga-group-mouth-single"><path id="SvgjsPath13615" d="M86.9 128.1s2.9-.3 4.6-1 5.1-2.1 7.7-2.2 4.9.4 8 1.4 6.2 1.8 7.7 1.6c0 0-1.2 1.2-3.5 2.6s-5.8 2.9-9.8 3-7.3-.5-10.1-2c-3-1.5-4.4-2.7-4.6-3.4z" fill="#da7c87" stroke-width="none" opacity="1" transform="translate(0 3)" stroke="none"></path><path id="SvgjsPath13616" d="M86.4 128.4c4.6 2.6 9.9.3 14.8.5 4.4.1 10.4 1.9 14.4-.7.4-.2.1-.7-.3-.7-2.4.4-4.6.9-7 .8-2.4-.1-4.7-.5-7.1-.5-4.9-.1-9.8 1.8-14.6.1-.3-.2-.5.3-.2.5z" fill="#cb5f6c" stroke-width="none" opacity="1" transform="translate(0 3)" stroke="none"></path><path id="SvgjsPath13617" d="M92 130.8c4.7 1.9 11.1 2.3 15.6-.4.2-.1.1-.5-.1-.5-2.6.1-5.1.7-7.7.9-2.6.1-5.2-.1-7.7-.3-.2-.1-.2.2-.1.3z" fill="#e99ca5" stroke-width="none" opacity="1" transform="translate(0 3)" stroke="none"></path><path id="SvgjsPath13618" d="M98.1 126.3c2.1 0 4.1.5 6.2 1 .3.1.5-.3.2-.5-2-1-4.3-1.1-6.4-.8-.2 0-.2.2 0 .3z" fill="#e99ca5" stroke-width="none" opacity="1" transform="translate(0 3)" stroke="none"></path></g></g><g id="svga-group-eyes-left-move" transform="matrix(1,0,0,1,0,0)"><g id="svga-group-eyes-left"><g id="svga-group-eyesback-left"><path id="SvgjsPath13751" d="M91.7 97.7s-.4.5-.9.7c-.5.2-4.9 1.4-7.9 1.6-3 .2-7.5-.2-8.7-.9-1.3-.6-1.6-1.1-1.6-1.5 0-.5.4-1.8 2.2-2.5 1.8-.7 3.7-1.2 6.2-1.2s6.1.9 7.9 2.1c1.7 1 2.8 1.7 2.8 1.7z" fill="#ffffff" stroke-width="none" opacity="1"></path></g><g id="svga-group-eyesiriswrapper-left" transform="matrix(1,0,0,1,0,0)"><g id="svga-group-eyesiriscontrol-left" transform="matrix(1,0,0,1,0,0)"><g id="svga-group-eyesiris-left"><path id="SvgjsPath13699" d="M82 91.5c2.7 0 4.9 2.2 4.9 4.9s-2.2 4.9-4.9 4.9-4.9-2.2-4.9-4.9 2.2-4.9 4.9-4.9z" fill="#681711" stroke-width="none" opacity="1"></path><path id="SvgjsPath13700" d="M82 91.8c2.6 0 4.6 2.1 4.6 4.6 0 2.6-2.1 4.6-4.6 4.6-2.6 0-4.6-2.1-4.6-4.6-.1-2.5 2-4.6 4.6-4.6m0-.5c-2.8 0-5.2 2.3-5.2 5.2s2.3 5.2 5.2 5.2 5.2-2.3 5.2-5.2-2.4-5.2-5.2-5.2z" fill="#490500" stroke-width="none" opacity="1"></path><path id="SvgjsPath13701" d="M84.4 92.1c-.1.3-.3.6-.5.9s-.4.6-.6.8c.1-.3.3-.6.5-.9.2-.2.4-.5.6-.8zm.7.6c-.2.3-.4.6-.6.8-.2.3-.4.5-.7.7.2-.3.4-.6.6-.8.3-.2.5-.5.7-.7zm-.8 1.9.6-.6c.2-.2.4-.4.7-.5l-.6.6c-.2.2-.4.4-.7.5zm.3.6c.3-.2.6-.3.8-.4.3-.1.6-.2.9-.2-.3.2-.6.3-.8.4-.3 0-.6.1-.9.2zm.2.5c.3-.1.6-.2.8-.2.3-.1.6-.1.9-.1-.3.1-.6.2-.8.2-.3.1-.5.1-.9.1zm.1.6c.1 0 .3 0 .4-.1h.4c.3 0 .6.1.8.2h-.9c-.1 0-.3 0-.4-.1 0 .1-.1.1-.3 0zm-.1.6c.3 0 .6.1.9.1s.6.2.8.3c-.3 0-.6-.1-.9-.1-.2-.1-.5-.2-.8-.3zm0 .7c.1 0 .3.1.4.1.1.1.2.1.4.2s.5.3.7.5c-.3-.1-.5-.2-.8-.3-.1-.1-.2-.1-.4-.2-.1-.2-.2-.2-.3-.3zm-.5.7c.3.1.5.2.7.4.2.2.4.3.6.5-.3-.1-.5-.2-.7-.4-.2-.1-.4-.3-.6-.5zm-.9-6.5c0 .3-.1.6-.2.9l-.3.9c0-.3.1-.6.2-.9l.3-.9zm-1.2 1.7c-.1-.3 0-.6 0-.9s.1-.6.2-.9c.1.3 0 .6 0 .9 0 .2-.1.6-.2.9zm-1-1.9c.1.3.2.6.2.9s.1.6.1.9l-.3-.9c0-.2-.1-.3-.1-.5.1-.1.1-.2.1-.4zm-1.1.4c.2.3.3.6.4.9s.2.6.2.9c-.2-.3-.3-.6-.4-.9s-.2-.6-.2-.9zm-.8.5c.2.2.4.5.6.8s.3.6.5.9c-.2-.2-.4-.5-.6-.8-.2-.3-.4-.6-.5-.9zm-1 .8.9.6c.3.2.6.5.8.8l-.9-.6-.8-.8zm-.3.9c.3.1.5.2.7.3.2.1.4.3.6.5-.3-.1-.5-.2-.7-.3-.2-.1-.4-.3-.6-.5zm-.4 1c.2 0 .5 0 .7.1s.4.1.7.3c-.2 0-.5 0-.7-.1s-.5-.1-.7-.3zm-.2 1.1c.3-.1.5-.1.8-.1s.5 0 .8.1c-.3.1-.5.1-.8.1s-.5 0-.8-.1zm.1.9c.2-.1.5-.2.7-.2.2-.1.5-.1.8-.1-.2.1-.5.2-.7.2-.3.1-.5.1-.8.1zm.1.8c.3-.2.5-.2.8-.3s.6-.2.9-.2c-.3.2-.5.2-.8.3-.3.1-.6.2-.9.2zm.4.9c.2-.2.5-.3.7-.4s.5-.2.8-.3c-.2.2-.5.3-.7.4-.2.1-.5.2-.8.3zm.8.8c.1-.2.3-.4.4-.6.2-.2.3-.3.6-.5-.1.2-.3.4-.4.6s-.4.4-.6.5zm.8.8c.1-.3.2-.6.4-.9.2-.3.3-.6.5-.8-.1.3-.2.6-.4.9-.1.3-.3.5-.5.8zm1.1.3c0-.3 0-.5.1-.8s.1-.5.3-.7c0 .3 0 .5-.1.8-.1.3-.1.5-.3.7zm2.5-1.6c.1.2.2.5.3.7s.1.5.2.8c-.1-.2-.2-.5-.3-.7-.1-.3-.2-.6-.2-.8zm.7-.3.5.5c.1.2.3.4.3.6l-.5-.5-.3-.6zm-1.4.5c.1.2.1.5.2.7v.7c-.1-.2-.1-.5-.2-.7v-.7zm-.6.1c.1.2.1.5.1.7s0 .5-.1.7c-.1-.2-.1-.5-.1-.7s0-.5.1-.7z" fill="#490500" stroke-width="none" opacity="1"></path><path id="SvgjsPath13702" d="M82 93.6c1.5 0 2.8 1.3 2.8 2.8s-1.3 2.8-2.8 2.8-2.8-1.3-2.8-2.8 1.3-2.8 2.8-2.8z" fill="#000000" stroke-width="none" opacity="1"></path><path id="SvgjsPath13703" d="m81.3 94.2-.6-.6c-.2-.2-.4-.3-.7-.3-.2 0-.5.1-.7.3-.2.2-.3.4-.3.7s.1.5.3.7l.6.6c.2.2.4.3.7.3.2 0 .5-.1.7-.3.4-.4.4-1 0-1.4zm2.6 4.7c.9 0 .9-1.4 0-1.4s-.9 1.4 0 1.4z" fill="#ffffff" stroke-width="none" opacity="1"></path></g></g></g><g id="svga-group-eyesfront-left"><path id="SvgjsPath13759" d="M70.7 98c0 6.9 4.9 12.5 11 12.5s11-5.6 11-12.5-4.9-12.5-11-12.5-11 5.6-11 12.5zm1.8-.5c0-.5.4-1.8 2.2-2.5 1.8-.7 3.7-1.2 6.2-1.2s6.1.9 7.9 2.1c1.7 1.1 2.8 1.8 2.8 1.8s-.4.5-.9.7c-.5.2-4.9 1.4-7.9 1.6-3 .2-7.5-.2-8.7-.9-1.2-.7-1.5-1.1-1.6-1.6z" fill="#f3d4cf" stroke-width="none" opacity="1" stroke="none"></path><path id="SvgjsPath13760" d="M74.7 93.8c5.2-4.3 14.6-3.1 17 3.6 0 .1-.1.1-.2.1-1.8-2.7-3.8-5-7.2-5.5-3.2-.6-6.7.2-9.6 1.8 0 .2 0 .1 0 0z" fill="#e4b3ab" stroke-width="none" opacity="1" stroke="none"></path><path id="SvgjsPath13761" d="M68.7 96.7c-.1-.1-.1-.3.1-.2 1.2.1 2.3.2 3.5-.1.1-.2.2-.4.4-.5-1 .2-2.2.1-3-.4-.1-.1-.1-.3.1-.3.6 0 1.2.2 1.8.2.6 0 1.1-.1 1.7-.1l.1-.1c-.8 0-1.5-.1-2.2-.4-.1 0-.1-.2.1-.2 1.2.1 2.2.1 3.3 0 .2-.1.4-.2.6-.2-1.1-.1-2.1-.4-3-.9-.1-.1 0-.2.1-.2 1.1.3 2.1.6 3.2.7h1.2c.3-.1.6-.1.8-.1-.2-.1-.4-.1-.6-.2-.1-.1-.1-.3.1-.3.5 0 1 .1 1.4.2.4 0 .7 0 1.1.1h1.2c3.9.1 8.1 1.6 10.9 4.2.1 0 0 .1-.1.1-2.9-1.8-5.7-3.3-9.2-3.6-2.8-.3-6.9 0-9.1 2.2-1.9 1.9 1.7 2.7 3 2.9 1.7.3 3.4.5 5.1.4 3.3-.1 6.4-.8 9.6-1.6.1 0 .2.2.1.2-3.8 1.7-8.5 2.2-12.6 1.9-1.2-.1-5-.2-6.2-1.6-.4.1-.7 0-1.1.1-.5.1-1 .2-1.5.2-.1 0-.2-.2-.1-.2.5-.4 1-.5 1.6-.6.2 0 .5-.1.7-.1-.1-.3-.1-.6 0-.9-.9 0-2.1-.1-3.1-.6z" fill="#000000" stroke-width="none" opacity="1" stroke="none"></path></g></g></g><g id="svga-group-eyes-right-move" transform="matrix(1,0,0,1,0,0)"><g id="svga-group-eyes-right"><g id="svga-group-eyesback-right"><path id="SvgjsPath13752" d="M108.3 97.7s.4.5.9.7c.5.2 4.9 1.4 7.9 1.6 3 .2 7.5-.2 8.7-.9 1.3-.6 1.6-1.1 1.6-1.5 0-.5-.4-1.8-2.2-2.5-1.8-.7-3.7-1.2-6.2-1.2s-6.1.9-7.9 2.1c-1.7 1-2.8 1.7-2.8 1.7z" fill="#ffffff" stroke-width="none" opacity="1"></path></g><g id="svga-group-eyesiriswrapper-right" transform="matrix(1,0,0,1,0,0)"><g id="svga-group-eyesiriscontrol-right" transform="matrix(1,0,0,1,0,0)"><g id="svga-group-eyesiris-right"><path id="SvgjsPath13704" d="M118 91.5c2.7 0 4.9 2.2 4.9 4.9s-2.2 4.9-4.9 4.9-4.9-2.2-4.9-4.9 2.2-4.9 4.9-4.9z" fill="#681711" stroke-width="none" opacity="1"></path><path id="SvgjsPath13705" d="M118 91.8c2.6 0 4.6 2.1 4.6 4.6 0 2.6-2.1 4.6-4.6 4.6-2.6 0-4.6-2.1-4.6-4.6s2.1-4.6 4.6-4.6m0-.5c-2.8 0-5.2 2.3-5.2 5.2s2.3 5.2 5.2 5.2 5.2-2.3 5.2-5.2-2.3-5.2-5.2-5.2z" fill="#490500" stroke-width="none" opacity="1"></path><path id="SvgjsPath13706" d="M120.5 92.1c-.1.3-.3.6-.5.9s-.4.6-.6.8c.1-.3.3-.6.5-.9.2-.2.3-.5.6-.8zm.7.6c-.2.3-.4.6-.6.8-.2.3-.4.5-.7.7.2-.3.4-.6.6-.8.2-.2.4-.5.7-.7zm-.9 1.9.6-.6c.2-.2.4-.4.7-.5l-.6.6c-.2.2-.4.4-.7.5zm.3.6c.3-.2.6-.3.8-.4.3-.1.6-.2.9-.2-.3.2-.6.3-.8.4-.3 0-.6.1-.9.2zm.3.5c.3-.1.6-.2.8-.2.3-.1.6-.1.9-.1-.3.1-.6.2-.8.2-.3.1-.6.1-.9.1zm.1.6c.1 0 .3 0 .4-.1h.4c.3 0 .6.1.8.2h-.9c-.1 0-.3 0-.4-.1 0 .1-.2.1-.3 0zm-.2.6c.3 0 .6.1.9.1s.6.2.8.3c-.3 0-.6-.1-.9-.1-.2-.1-.5-.2-.8-.3zm0 .7c.1 0 .3.1.4.1.1.1.2.1.4.2s.5.3.7.5c-.3-.1-.5-.2-.8-.3-.1-.1-.2-.1-.4-.2 0-.2-.2-.2-.3-.3zm-.4.7c.3.1.5.2.7.4.2.2.4.3.6.5-.3-.1-.5-.2-.7-.4-.3-.1-.5-.3-.6-.5zm-.9-6.5c0 .3-.1.6-.2.9l-.3.9c0-.3.1-.6.2-.9 0-.3.1-.6.3-.9zm-1.2 1.7c-.1-.3 0-.6 0-.9s.1-.6.2-.9c.1.3 0 .6 0 .9-.1.2-.1.6-.2.9zm-1.1-1.9c.1.3.2.6.2.9s.1.6.1.9l-.3-.9c0-.2-.1-.3-.1-.5.1-.1.1-.2.1-.4zm-1 .4c.2.3.3.6.4.9s.2.6.2.9c-.2-.3-.3-.6-.4-.9-.1-.3-.2-.6-.2-.9zm-.9.5c.2.2.4.5.6.8s.3.6.5.9c-.2-.2-.4-.5-.6-.8-.2-.3-.4-.6-.5-.9zm-.9.8.9.6c.3.2.6.5.8.8l-.9-.6c-.3-.3-.6-.5-.8-.8zm-.3.9c.3.1.5.2.7.3.2.1.4.3.6.5-.3-.1-.5-.2-.7-.3-.2-.1-.4-.3-.6-.5zm-.4 1c.2 0 .5 0 .7.1s.4.1.7.3c-.2 0-.5 0-.7-.1-.3-.1-.5-.1-.7-.3zm-.2 1.1c.3-.1.5-.1.8-.1s.5 0 .8.1c-.3.1-.5.1-.8.1s-.6 0-.8-.1zm.1.9c.2-.1.5-.2.7-.2.2-.1.5-.1.8-.1-.2.1-.5.2-.7.2-.3.1-.6.1-.8.1zm0 .8c.3-.2.5-.2.8-.3s.6-.2.9-.2c-.3.2-.5.2-.8.3-.3.1-.6.2-.9.2zm.5.9c.2-.2.5-.3.7-.4s.5-.2.8-.3c-.2.2-.5.3-.7.4-.3.1-.5.2-.8.3zm.7.8c.1-.2.3-.4.4-.6.2-.2.3-.3.6-.5-.1.2-.3.4-.4.6-.2.2-.3.4-.6.5zm.9.8c.1-.3.2-.6.4-.9.2-.3.3-.6.5-.8-.1.3-.2.6-.4.9-.1.3-.3.5-.5.8zm1.1.3c0-.3 0-.5.1-.8s.1-.5.3-.7c0 .3 0 .5-.1.8-.1.3-.2.5-.3.7zm2.5-1.6c.1.2.2.5.3.7s.1.5.2.8c-.1-.2-.2-.5-.3-.7-.1-.3-.2-.6-.2-.8zm.7-.3.5.5c.1.2.3.4.3.6l-.5-.5-.3-.6zm-1.4.5c.1.2.1.5.2.7v.7c-.1-.2-.1-.5-.2-.7s-.1-.4 0-.7zm-.7.1c.1.2.1.5.1.7s0 .5-.1.7c-.1-.2-.1-.5-.1-.7s0-.5.1-.7z" fill="#490500" stroke-width="none" opacity="1"></path><path id="SvgjsPath13707" d="M118 93.6c1.5 0 2.8 1.3 2.8 2.8s-1.3 2.8-2.8 2.8-2.8-1.3-2.8-2.8 1.3-2.8 2.8-2.8z" fill="#000000" stroke-width="none" opacity="1"></path><path id="SvgjsPath13708" d="m117.3 94.2-.6-.6c-.2-.2-.4-.3-.7-.3-.2 0-.5.1-.7.3-.2.2-.3.4-.3.7s.1.5.3.7l.6.6c.2.2.4.3.7.3.2 0 .5-.1.7-.3.4-.4.4-1 0-1.4zm2.6 4.7c.9 0 .9-1.4 0-1.4s-.9 1.4 0 1.4z" fill="#ffffff" stroke-width="none" opacity="1"></path></g></g></g><g id="svga-group-eyesfront-right"><path id="SvgjsPath13762" d="M118.3 85.5c-6.1 0-11 5.6-11 12.5s4.9 12.5 11 12.5 11-5.6 11-12.5-5-12.5-11-12.5zm7.5 13.5c-1.3.6-5.7 1.1-8.7.9-3-.2-7.4-1.4-7.9-1.6-.5-.2-.9-.7-.9-.7s1.1-.7 2.8-1.8c1.7-1.1 5.4-2.1 7.9-2.1s4.4.5 6.2 1.2c1.8.7 2.3 2.1 2.2 2.5 0 .6-.3 1-1.6 1.6z" fill="#f3d4cf" stroke-width="none" opacity="1" stroke="none"></path><path id="SvgjsPath13765" d="M125.3 93.8c-5.2-4.3-14.6-3.1-17 3.6 0 .1.1.1.2.1 1.8-2.7 3.8-5 7.2-5.5 3.2-.6 6.7.2 9.6 1.8 0 .2 0 .1 0 0z" fill="#e4b3ab" stroke-width="none" opacity="1" stroke="none"></path><path id="SvgjsPath13766" d="M131.3 96.7c.1-.1.1-.3-.1-.2-1.2.1-2.3.2-3.5-.1-.1-.2-.2-.4-.4-.5 1 .2 2.2.1 3-.4.1-.1.1-.3-.1-.3-.6 0-1.2.2-1.8.2-.6 0-1.1-.1-1.7-.1l-.1-.1c.8 0 1.5-.1 2.2-.4.1 0 .1-.2-.1-.2-1.2.1-2.2.1-3.3 0-.2-.1-.4-.2-.6-.2 1.1-.1 2.1-.4 3-.9.1-.1 0-.2-.1-.2-1.1.3-2.1.6-3.2.7h-1.2c-.3-.1-.6-.1-.8-.1.2-.1.4-.1.6-.2.1-.1.1-.3-.1-.3-.5 0-1 .1-1.4.2-.4 0-.7 0-1.1.1h-1.2c-3.9.1-8.1 1.6-10.9 4.2-.1 0 0 .1.1.1 2.9-1.8 5.7-3.3 9.2-3.6 2.8-.3 6.9 0 9.1 2.2 1.9 1.9-1.7 2.7-3 2.9-1.7.3-3.4.5-5.1.4-3.3-.1-6.4-.8-9.6-1.6-.1 0-.2.2-.1.2 3.8 1.7 8.5 2.2 12.6 1.9 1.2-.1 5-.2 6.2-1.6.4.1.7 0 1.1.1.5.1 1 .2 1.5.2.1 0 .2-.2.1-.2-.5-.4-1-.5-1.6-.6-.2 0-.5-.1-.7-.1.1-.3.1-.6 0-.9.9 0 2.1-.1 3.1-.6z" fill="#000000" stroke-width="none" opacity="1" stroke="none"></path></g></g></g><g id="svga-group-facehighlight-single"></g><g id="svga-group-eyebrows-left-move" transform="matrix(1,0,0,1,0,0)"><g id="svga-group-eyebrows-left-rotate" transform="matrix(0.9914448590956985,0.13052620952402866,-0.13052620952402866,0.9914448590956985,11.95799795142608,-9.616642888320598)"><g id="svga-group-eyebrows-left"><path id="SvgjsPath13822" d="M76.7 85.3c.9-.1 7.5 1.2 8.8 1.4 3.3.4 5.5-.3 5.8-.8s1.1-1.2.5-2.3c-.6-1.1-7.4-1.9-11.8-.7-8.7 2.4-13.2 7.4-13.2 7.4 2.5-2.5 9-4.9 9.9-5z" fill="#4e4341" stroke-width="none" opacity="1"></path><path id="SvgjsPath13823" d="M77.2 85.1c1.2 0 2.4-.4 3.5-.7.1 0 0-.2-.1-.2-1.1.3-2.3.4-3.4.7-.1.1-.1.2 0 .2zm2.3.2c-.1 0-.1.2.1.2 1.3-.1 2.6-.5 3.8-.8.8-.2 1.5-.5 1.9-1 .1-.1-.1-.2-.2-.1-1.2 1-3.9 1-5.6 1.7zm3.8.6c2.3.3 5.1-.7 6.3-2.2.1-.1-.1-.2-.2-.1-.8.7-1.6 1.2-2.7 1.6s-2.2.4-3.3.6c-.2 0-.2.1-.1.1zm3.2.2c1.8.2 4.4-1.1 4.4-2.5 0-.1-.3-.2-.3 0-.1.7-1 1.3-1.7 1.6-.8.4-1.6.4-2.4.7-.1.1-.1.2 0 .2zm-12.2-.2c.8-.3 1.6-.8 2.4-1.2.1-.1 0-.2-.1-.1-.8.4-1.8.7-2.3 1.3-.2 0-.1.1 0 0z" fill="#5d5857" stroke-width="none" opacity="1"></path><path id="SvgjsPath13824" d="M66.6 90.6s.1.1.2 0c.8-.6 1.5-1.2 2.2-1.7.8-.5 1.7-.9 2.5-1.3 1.7-.8 3.3-1.6 5.2-2.2 3.9.2 16.6 4.2 15.4-1.7v-.2c0-.1-.2-.1-.3 0v.1c-.1-.3-.4-.7-.9-.8-.1 0-.1 0-.1.1 0 0 .1 0 .1.1-.5-.3-1.3-.5-1.8-.4-3.9-1.1-9.3.2-12.8 1.3-4.1 1.4-7.7 3.6-9.8 6.5 0 .1 0 .1.1.2zm2.2-2c5.1-4.2 13.7-7.8 21.1-5.6.1 0 .2 0 .1-.1h.2c.5.1.8.3 1 .7.1.1.2 0 .2 0 0-.1 0-.2-.1-.3 0 0 .1 0 .1.1.2.2.3.4.2.7-.1.1-.2.1-.2.2 0 0 0 .1.1.1.2 0 .4-.1.5-.2-.4 5.1-11.9.6-15.5 1.2 0 0-.1 0-.1.1-2 .3-3.6 1.3-5.3 2.1-.9.2-1.6.6-2.3 1z" fill="#3f312e" stroke-width="none" opacity="1"></path></g></g></g><g id="svga-group-eyebrows-right-move" transform="matrix(1,0,0,1,0,0)"><g id="svga-group-eyebrows-right-rotate" transform="matrix(0.9914448613738104,-0.13052619222005174,0.13052619222005174,0.9914448613738104,-10.242957559076473,16.489108425675113)"><g id="svga-group-eyebrows-right"><path id="SvgjsPath13825" d="M133.1 90.3s-4.4-5-13.2-7.4c-4.4-1.2-11.1-.4-11.8.7-.6 1.1.2 1.8.5 2.3s2.5 1.2 5.8.8c1.3-.2 7.9-1.5 8.8-1.4 1 .1 7.5 2.5 9.9 5z" fill="#4e4341" stroke-width="none" opacity="1"></path><path id="SvgjsPath13826" d="M122.8 84.9c-1.1-.3-2.3-.4-3.4-.7-.1 0-.2.1-.1.2 1.1.3 2.3.7 3.5.7.1 0 .1-.1 0-.2zm-7.9-1.5c-.1-.1-.2 0-.2.1.4.6 1.1.8 1.9 1 1.2.3 2.5.7 3.8.8.1 0 .1-.1.1-.2-1.7-.5-4.3-.5-5.6-1.7zm1.8 2.3c-1.1-.2-2.3-.3-3.3-.6s-1.9-.9-2.7-1.6c-.1-.1-.3 0-.2.1 1.2 1.5 3.9 2.5 6.3 2.2 0 .1 0 0-.1-.1zm-3.2.2c-.8-.2-1.7-.3-2.4-.7-.8-.4-1.6-.9-1.7-1.6 0-.1-.3-.1-.3 0 .1 1.4 2.6 2.7 4.4 2.5.2 0 .1-.1 0-.2zm12.3 0c-.6-.5-1.6-.9-2.4-1.2-.1 0-.2.1-.1.1.8.4 1.6.9 2.5 1.1 0 .1.1 0 0 0z" fill="#5d5857" stroke-width="none" opacity="1"></path><path id="SvgjsPath13827" d="M133.5 90.4c-2.1-2.9-5.8-5.2-9.8-6.5-3.5-1.2-8.9-2.4-12.8-1.3-.5-.1-1.3.1-1.8.4 0 0 .1 0 .1-.1l-.1-.1c-.4.1-.8.4-.9.8v-.1c0-.1-.2-.1-.3 0v.2c-1.1 5.9 11.5 1.9 15.4 1.7 1.9.5 3.5 1.3 5.2 2.2.9.4 1.8.8 2.5 1.3.8.6 1.4 1.2 2.2 1.7h.2c.1-.1.1-.1.1-.2zm-4.6-3c-1.7-.8-3.3-1.8-5.3-2.1l-.1-.1c-3.6-.6-15 4-15.5-1.2.1.1.3.3.5.2.1 0 .1-.1.1-.1 0-.1-.1-.2-.2-.2-.1-.2 0-.5.2-.7 0 0 .1 0 .1-.1-.1.1-.1.2-.1.3 0 .1.2.1.2 0 .2-.3.5-.6 1-.7h.2c0 .1.1.1.1.1 7.4-2.1 15.9 1.5 21.1 5.6-.7-.2-1.4-.6-2.3-1z" fill="#3f312e" stroke-width="none" opacity="1"></path></g></g></g><g id="svga-group-nose-single-move" transform="matrix(1,0,0,1,0,0)"><g id="svga-group-nose-single"><path id="SvgjsPath13797" d="M103.3 114.98c.02.07.04.13.08.19.3.5.8.49 1.28.67.37.14.67.41 1.05.55.58.21 1.04-.42.93-.93-.2-.96-1.64-1.8-2.63-1.51.14-.28.26-.58.34-.92.06-.27-.33-.46-.46-.19-1.82 3.66-6.13 4.01-8.33.41-.04-.07-.17-.03-.14.06.1.31.23.59.38.85-.95-.05-2.34.8-2.03 1.78-.04.4.4.62.74.54.31-.01.59-.16.86-.32.24-.14.62-.17.94-.33.25-.12.37-.32.41-.54.21.18.44.34.68.47-1.41.04-2.67 1.32-4.11.48-2.74-1.62.01-4.96 1.39-6.41.11-.12-.06-.28-.18-.18-1.68 1.47-3.88 3.86-2.42 6.23 1.46 2.38 3.82.47 5.78.12 1.81.77 4.07.42 5.44-1.02z" fill="#c5796d" stroke-width="none" opacity="1" transform="translate(0 2)" stroke="none"></path><path id="SvgjsPath13798" d="M104.73 109.22c-.12-.06-.27.1-.16.2 1.4 1.24 3.42 2.4 3.52 4.52.05 1.18-.56 2.14-1.68 2.45-1.16.32-2.29-.23-3.39-.56-.16-.05-.23.17-.11.26 1.83 1.31 4.86 1.82 5.69-.91.81-2.66-1.73-4.92-3.87-5.96z" fill="#c5796d" stroke-width="none" opacity="1" transform="translate(0 2)" stroke="none"></path><path id="SvgjsPath13799" d="M98.05 106.55c2.18-.59 4.11-.09 6.02 1 .09.05.21-.08.12-.16-1.7-1.45-4.12-1.68-6.19-1.02-.11.04-.06.21.05.18z" fill="#c5796d" stroke-width="none" opacity="1" transform="translate(0 2)" stroke="none"></path><path id="SvgjsPath13800" d="M97.02 105.73c1.08-2.37 1.09-5.39.14-7.79-.04-.1-.18-.06-.16.04.45 2.7.3 4.96-.27 7.63-.04.16.21.29.29.12z" fill="#c5796d" stroke-width="none" opacity="1" transform="translate(0 2)" stroke="none"></path><path id="SvgjsPath13801" d="M101.8 109.08c-.45-.49-1.27-.56-1.83-.24-.26.15-.44.37-.57.62a2.8 2.8 0 0 0-.16-.2c-.84-.99-2.54-.17-2.51 1.04.03 1.75 1.98 3.22 3.67 2.79 1.72-.42 2.65-2.62 1.4-4.01z" fill="#fbe5e2" stroke-width="none" opacity="1" transform="translate(0 2)" stroke="none"></path></g></g><g id="svga-group-hair-front"><path id="SvgjsPath13864" d="M143.1 79.3c-.9 7.7-2.8 15-4.8 18.6 0 0-.3-14.3-3.7-21.1S121.2 62.2 120 56.5c0 0 1.5 3.3 3.8 4.7s10.3 7.6 12.2 9.7 5 7.3 6.3 8c.1.1.5.2.8.4zm-76.2 56.4c0 .6-.2 2.2-.5 4.5-.7-6.6-2.1-13.9-2.1-13.9s-30.2 44.5-26.2 59.2c4 14.7 12.1 24.9 12.9 25.7.8.8 4 1.9 5.4 4.5.5 1 10.5-8.8 5.6-20.6-4.8-11.8-5.9-19.8-1.9-26 .7-1.1 1.3-2.3 1.9-3.5-.8 4.3-1.5 7.7-1.7 8.7-.9 3.5-.9 8.5 1.5 14s6.1 5.8 6.1 5.8c-1.7-2.7-1.8-7.3-.2-12.1s4.2-9.5 5.6-14.5c1.5-5.2 2.2-11.4-2.7-21.7-2.7-6.1-3.7-10.1-3.7-10.1z" fill="#483b39" stroke-width="none" opacity="1" stroke="none"></path><path id="SvgjsPath13865" d="M120 56.5s-18.2 6.8-32.8 1.7-24 15.1-22.8 27.1 9.4 27.7 4.6 47.1c-4.8 19.4-18.8 34.2-22.8 42.8s-4 17.4 0 23.7 6 10.8 7.1 17.4c0 0-1.5-3.6-7.4-8-9.3-6.9-13.1-15.1-12.5-27.9s6.2-22.8 11.1-33.1c4.8-10.3 7.3-23.3 3.9-31.9-3.4-8.6-7.3-20.5-5.9-41.7 1.4-21.1 13.1-32.4 27.7-41s35.7-7 49.1 1.3 11.4 15.7 11.4 15.7 4-2 10 7.1 2 33.4-2.3 41.1c0 0-.3-14.3-3.7-21.1S121.2 62.2 120 56.5z" fill="#504543" stroke-width="none" opacity="1" stroke="none"></path><path id="SvgjsPath13866" d="M127.6 50.2c-2.3 1.5-4.7 1.5-6.1.8-4.1-1.8-7.4-8-10.8-11.7-5.7-6.2-7.2-9.4-20.3-10.1-9.3-.5-16.7 1.9-21 3.8-14.2 8.5-25.5 19.8-26.9 40.6-1.4 21.1 2.4 33.1 5.9 41.7s.9 21.6-3.9 31.9c-4.8 10.3-10.5 20.3-11.1 33.1s3.3 21 12.5 27.9c5.9 4.4 7.4 8 7.4 8-1.6-4.5-4-6.3-8.7-10.6-4.8-4.3-9.4-16.4-8.4-25.6s9.7-25 13.8-31.4c4.1-6.4 7.4-17.4 8.8-23.3 1.4-5.9.2-10.8-3.9-20.9s-6.3-36.5-5.6-41c1.1-8.3 3.1-14 9.4-20.6 9.4-9.8 21.6-11.3 28.9-11.4 11.8-.1 20 7.7 21.5 9.9s10.5 11.9 12.8 12.3c2.3.4 8-3.4 8-3.4l.7-.6s.3-1 0-2.6c-.5.9-1.5 2.2-3 3.2zM102.2 60c.3 0 .7 0 1-.1.2 0 .5 0 .8-.1.4 0 .9-.1 1.3-.1.2 0 .5-.1.8-.1.3 0 .7-.1 1-.1.3 0 .6-.1.9-.1.3 0 .6-.1.9-.1.2 0 .4-.1.6-.1.4-.1.8-.2 1.2-.2.2 0 .4-.1.6-.1.4-.1.8-.2 1.1-.2.2 0 .3-.1.4-.1.3-.1.6-.2.9-.2.1 0 .2 0 .3-.1.4-.1.8-.2 1.1-.3.1 0 .2 0 .3-.1.4-.1.7-.2 1.1-.3 2.2-.6 3.5-1.1 3.5-1.1s-5 .6-10.9-5.5c-2.3-3.7-6.1-10.5-12-12.8-6.8-2.7-29.5-3.9-37.2 12.5s-2.7 30.5.6 37.4c3.3 6.9 8.5 20.1 8.3 28.7-.2 8.7-2.3 21-4.6 26.4-2.3 5.4-17.6 24.4-20.8 33.3-3.3 9.3-4.4 15.6 3.5 28.3 3 4.9 5 6.3 5.8 8.1-1.2-5-3.1-9-6.5-14.2-4-6.3-4-15.1 0-23.7s18-23.4 22.8-42.8-3.4-35.1-4.6-47.1S72.7 52.9 87.2 58c1.9.7 3.9 1.1 5.8 1.4h.1c.2 0 .4.1.7.1.4 0 .8.1 1.2.1.3 0 .6 0 .8.1.4 0 .8.1 1.3.1h4.1c.3.3.7.3 1 .2z" fill="#483b39" stroke-width="none" opacity="1" stroke="none"></path><path id="SvgjsPath13867" d="M63.3 148.6s-2.6 6.6-9.3 14.7c-8.9 10.7-10.7 17.4-7.4 25.8 3.3 8.4 7.8 12.8 9.3 16.5s1.1 7.6 1.1 7.6 1.9-4.1 1.1-7.2c-.7-3.1-7.4-13.9-8.4-20s.1-12.9 4.2-18.7c3.5-4.9 7.6-11.6 9.4-18.7zm1.9 1.5s-2.5 11.6-6 17.4c-3.5 5.8-4.6 13-2 19.1 2.6 6.1 7.6 14.1 7.2 19.4 0 0 3.4-6.4.2-13s-4.3-16.4-1.7-23.1c2.6-6.6 2.9-15.2 2.3-19.8z" fill="#504543" stroke-width="none" opacity="1" stroke="none"></path><path id="SvgjsPath13868" d="M93.1 59.7c.3 0 .5.1.7.1.4 0 .8.1 1.2.1.3 0 .6 0 .8.1.4 0 .8.1 1.3.1h1.5c-2.4-1-5.2-2.6-7.6-5.4-4.8-5.9-8.5-8.6-16.2-7.8S59 58.1 59.5 69c.5 10.8 4 17.7 6.2 23.6-.6-2.6-1.1-5-1.3-7.3-1.1-12 8.3-32.2 22.8-27.1 2 .7 3.9 1.1 5.9 1.5z" fill="#413230" stroke-width="none" opacity="1" stroke="none"></path></g><g id="svga-group-glasses-single-move" transform="matrix(1,0,0,1,0,0)"><g id="svga-group-glasses-single"></g></g></g></g></g><rect id="svga-credit-rect" width="200" height="15" x="0" y="185" fill="#ecf0f1" opacity="0.5" style="display: none;"></rect><text id="svga-credit-text" font-family="Avenir Next, Roboto, Helvetica, Arial, sans-serif" font-size="10px" text-anchor="start" font-weight="400" size="10px" anchor="start" weight="400" fill="#333333" x="33.40447998046875" y="182.60824704170227" style="display: none;"><tspan id="SvgjsTspan13609" dy="13" x="33.40447998046875">Created on AvatarMaker.com</tspan></text></g><defs id="SvgjsDefs13561"></defs></svg>